<svg xmlns="http://www.w3.org/2000/svg" viewBox="0 0 64 64" fill="none">
  <rect width="64" height="64" rx="14" fill="#2563eb"/>
  <path d="M18 16h28a2 2 0 012 2v28a2 2 0 01-2 2H18a2 2 0 01-2-2V18a2 2 0 012-2z" fill="#fff" opacity="0.2"/>
  <path d="M22 20v24M22 20h14a4 4 0 014 4v16H22" stroke="#fff" stroke-width="2.5" stroke-linecap="round" stroke-linejoin="round"/>
  <path d="M22 20h-2a2 2 0 00-2 2v20a2 2 0 002 2h2" stroke="#fff" stroke-width="2.5" stroke-linecap="round" stroke-linejoin="round"/>
  <path d="M27 28h8M27 33h6" stroke="#fff" stroke-width="2" stroke-linecap="round"/>
</svg>
